<mxfile host="app.diagrams.net" modified="2021-06-22T09:11:06.807Z" agent="5.0 (Windows NT 10.0; Win64; x64) AppleWebKit/537.36 (KHTML, like Gecko) Chrome/91.0.4472.106 Safari/537.36" etag="r_L9jhi-D7UZRYDPgyb9" version="14.6.13" type="github">
  <diagram id="C5RBs43oDa-KdzZeNtuy" name="Page-1">
    <mxGraphModel dx="868" dy="450" grid="1" gridSize="10" guides="1" tooltips="1" connect="1" arrows="1" fold="1" page="1" pageScale="1" pageWidth="827" pageHeight="1169" math="0" shadow="0">
      <root>
        <mxCell id="WIyWlLk6GJQsqaUBKTNV-0" />
        <mxCell id="WIyWlLk6GJQsqaUBKTNV-1" parent="WIyWlLk6GJQsqaUBKTNV-0" />
        <mxCell id="EGZoGHrOsIgbQCZ_SuKL-14" style="edgeStyle=orthogonalEdgeStyle;rounded=0;orthogonalLoop=1;jettySize=auto;html=1;" edge="1" parent="WIyWlLk6GJQsqaUBKTNV-1" source="WIyWlLk6GJQsqaUBKTNV-3">
          <mxGeometry relative="1" as="geometry">
            <mxPoint x="241" y="179" as="targetPoint" />
          </mxGeometry>
        </mxCell>
        <mxCell id="WIyWlLk6GJQsqaUBKTNV-3" value="&lt;h5&gt;&lt;font color=&quot;#ffffff&quot; face=&quot;Comic Sans MS&quot; style=&quot;font-size: 15px ; line-height: 130%&quot;&gt;listen(9000)&lt;/font&gt;&lt;/h5&gt;" style="rounded=1;whiteSpace=wrap;html=1;fontSize=12;glass=0;strokeWidth=2;shadow=0;fillColor=#000000;" parent="WIyWlLk6GJQsqaUBKTNV-1" vertex="1">
          <mxGeometry x="161.25" y="20" width="160" height="60" as="geometry" />
        </mxCell>
        <mxCell id="WIyWlLk6GJQsqaUBKTNV-11" value="&lt;h5&gt;&lt;font color=&quot;#ffffff&quot; face=&quot;Comic Sans MS&quot; style=&quot;font-size: 15px&quot;&gt;encodeHttpResponse&lt;/font&gt;&lt;/h5&gt;" style="rounded=1;whiteSpace=wrap;html=1;fontSize=12;glass=0;strokeWidth=2;shadow=0;fillColor=#FF6666;" parent="WIyWlLk6GJQsqaUBKTNV-1" vertex="1">
          <mxGeometry x="150" y="1210" width="190" height="60" as="geometry" />
        </mxCell>
        <mxCell id="EGZoGHrOsIgbQCZ_SuKL-16" style="edgeStyle=orthogonalEdgeStyle;rounded=0;orthogonalLoop=1;jettySize=auto;html=1;exitX=0.5;exitY=1;exitDx=0;exitDy=0;entryX=0.5;entryY=0;entryDx=0;entryDy=0;" edge="1" parent="WIyWlLk6GJQsqaUBKTNV-1" source="EGZoGHrOsIgbQCZ_SuKL-0" target="EGZoGHrOsIgbQCZ_SuKL-1">
          <mxGeometry relative="1" as="geometry" />
        </mxCell>
        <mxCell id="EGZoGHrOsIgbQCZ_SuKL-0" value="&lt;h5&gt;&lt;font color=&quot;#ffffff&quot; face=&quot;Courier New&quot; style=&quot;font-size: 15px&quot;&gt;decodeHttpRequest&lt;/font&gt;&lt;/h5&gt;" style="rounded=1;whiteSpace=wrap;html=1;fillColor=#00CC00;strokeWidth=2;" vertex="1" parent="WIyWlLk6GJQsqaUBKTNV-1">
          <mxGeometry x="148.75" y="180" width="181.25" height="60" as="geometry" />
        </mxCell>
        <mxCell id="EGZoGHrOsIgbQCZ_SuKL-17" style="edgeStyle=orthogonalEdgeStyle;rounded=0;orthogonalLoop=1;jettySize=auto;html=1;exitX=0.5;exitY=1;exitDx=0;exitDy=0;entryX=0.5;entryY=0;entryDx=0;entryDy=0;" edge="1" parent="WIyWlLk6GJQsqaUBKTNV-1" source="EGZoGHrOsIgbQCZ_SuKL-1" target="EGZoGHrOsIgbQCZ_SuKL-2">
          <mxGeometry relative="1" as="geometry" />
        </mxCell>
        <mxCell id="EGZoGHrOsIgbQCZ_SuKL-1" value="&lt;h5&gt;&lt;font face=&quot;Comic Sans MS&quot; color=&quot;#ff3333&quot; style=&quot;line-height: 130% ; font-size: 15px&quot;&gt;onSessionStart&lt;/font&gt;&lt;/h5&gt;" style="rounded=1;whiteSpace=wrap;html=1;strokeColor=#FF3333;strokeWidth=2;" vertex="1" parent="WIyWlLk6GJQsqaUBKTNV-1">
          <mxGeometry x="161.25" y="290" width="157.5" height="60" as="geometry" />
        </mxCell>
        <mxCell id="EGZoGHrOsIgbQCZ_SuKL-18" style="edgeStyle=orthogonalEdgeStyle;rounded=0;orthogonalLoop=1;jettySize=auto;html=1;entryX=0.5;entryY=0;entryDx=0;entryDy=0;" edge="1" parent="WIyWlLk6GJQsqaUBKTNV-1" source="EGZoGHrOsIgbQCZ_SuKL-2" target="EGZoGHrOsIgbQCZ_SuKL-3">
          <mxGeometry relative="1" as="geometry" />
        </mxCell>
        <mxCell id="EGZoGHrOsIgbQCZ_SuKL-2" value="&lt;h5&gt;&lt;font color=&quot;#ffffff&quot; face=&quot;Comic Sans MS&quot; style=&quot;font-size: 15px&quot;&gt;onMessageStart&lt;/font&gt;&lt;/h5&gt;" style="rounded=1;whiteSpace=wrap;html=1;fillColor=#6666FF;strokeWidth=2;" vertex="1" parent="WIyWlLk6GJQsqaUBKTNV-1">
          <mxGeometry x="161.25" y="400" width="157.5" height="60" as="geometry" />
        </mxCell>
        <mxCell id="EGZoGHrOsIgbQCZ_SuKL-19" style="edgeStyle=orthogonalEdgeStyle;rounded=0;orthogonalLoop=1;jettySize=auto;html=1;exitX=0.5;exitY=1;exitDx=0;exitDy=0;entryX=0.5;entryY=0;entryDx=0;entryDy=0;" edge="1" parent="WIyWlLk6GJQsqaUBKTNV-1" source="EGZoGHrOsIgbQCZ_SuKL-3" target="EGZoGHrOsIgbQCZ_SuKL-11">
          <mxGeometry relative="1" as="geometry" />
        </mxCell>
        <mxCell id="EGZoGHrOsIgbQCZ_SuKL-3" value="&lt;h5&gt;&lt;font color=&quot;#ffffff&quot; style=&quot;font-size: 15px&quot; face=&quot;Comic Sans MS&quot;&gt;onMessageBody&lt;/font&gt;&lt;br&gt;&lt;/h5&gt;" style="rounded=1;whiteSpace=wrap;html=1;fillColor=#6666FF;strokeWidth=2;" vertex="1" parent="WIyWlLk6GJQsqaUBKTNV-1">
          <mxGeometry x="161.25" y="520" width="157.5" height="60" as="geometry" />
        </mxCell>
        <mxCell id="EGZoGHrOsIgbQCZ_SuKL-22" style="edgeStyle=orthogonalEdgeStyle;rounded=0;orthogonalLoop=1;jettySize=auto;html=1;exitX=0.5;exitY=1;exitDx=0;exitDy=0;entryX=0.5;entryY=0;entryDx=0;entryDy=0;" edge="1" parent="WIyWlLk6GJQsqaUBKTNV-1" source="EGZoGHrOsIgbQCZ_SuKL-4" target="EGZoGHrOsIgbQCZ_SuKL-5">
          <mxGeometry relative="1" as="geometry" />
        </mxCell>
        <mxCell id="EGZoGHrOsIgbQCZ_SuKL-4" value="&lt;h5&gt;&lt;font color=&quot;#ffffff&quot; style=&quot;font-size: 15px&quot; face=&quot;Comic Sans MS&quot;&gt;onData&lt;/font&gt;&lt;br&gt;&lt;/h5&gt;" style="rounded=1;whiteSpace=wrap;html=1;fillColor=#FF9933;strokeWidth=2;" vertex="1" parent="WIyWlLk6GJQsqaUBKTNV-1">
          <mxGeometry x="159.38" y="730" width="160" height="60" as="geometry" />
        </mxCell>
        <mxCell id="EGZoGHrOsIgbQCZ_SuKL-23" style="edgeStyle=orthogonalEdgeStyle;rounded=0;orthogonalLoop=1;jettySize=auto;html=1;entryX=0.5;entryY=0;entryDx=0;entryDy=0;" edge="1" parent="WIyWlLk6GJQsqaUBKTNV-1" source="EGZoGHrOsIgbQCZ_SuKL-5" target="EGZoGHrOsIgbQCZ_SuKL-6">
          <mxGeometry relative="1" as="geometry" />
        </mxCell>
        <mxCell id="EGZoGHrOsIgbQCZ_SuKL-5" value="&lt;h5&gt;&lt;font color=&quot;#ffffff&quot; style=&quot;font-size: 15px&quot; face=&quot;Comic Sans MS&quot;&gt;onMessage&lt;/font&gt;&lt;br&gt;&lt;/h5&gt;" style="rounded=1;whiteSpace=wrap;html=1;fillColor=#FF9933;strokeWidth=2;" vertex="1" parent="WIyWlLk6GJQsqaUBKTNV-1">
          <mxGeometry x="161.25" y="840" width="157.5" height="60" as="geometry" />
        </mxCell>
        <mxCell id="EGZoGHrOsIgbQCZ_SuKL-24" style="edgeStyle=orthogonalEdgeStyle;rounded=0;orthogonalLoop=1;jettySize=auto;html=1;exitX=0.5;exitY=1;exitDx=0;exitDy=0;entryX=0.5;entryY=0;entryDx=0;entryDy=0;" edge="1" parent="WIyWlLk6GJQsqaUBKTNV-1" source="EGZoGHrOsIgbQCZ_SuKL-6" target="EGZoGHrOsIgbQCZ_SuKL-7">
          <mxGeometry relative="1" as="geometry" />
        </mxCell>
        <mxCell id="EGZoGHrOsIgbQCZ_SuKL-6" value="&lt;h5&gt;&lt;font color=&quot;#ffffff&quot; face=&quot;Comic Sans MS&quot; style=&quot;font-size: 15px&quot;&gt;onMessageEnd&lt;/font&gt;&lt;br&gt;&lt;/h5&gt;" style="rounded=1;whiteSpace=wrap;html=1;fillColor=#FF9933;strokeWidth=2;" vertex="1" parent="WIyWlLk6GJQsqaUBKTNV-1">
          <mxGeometry x="159.38" y="950" width="160" height="60" as="geometry" />
        </mxCell>
        <mxCell id="EGZoGHrOsIgbQCZ_SuKL-26" style="edgeStyle=orthogonalEdgeStyle;rounded=0;orthogonalLoop=1;jettySize=auto;html=1;entryX=0.467;entryY=0;entryDx=0;entryDy=0;entryPerimeter=0;" edge="1" parent="WIyWlLk6GJQsqaUBKTNV-1" source="EGZoGHrOsIgbQCZ_SuKL-7" target="WIyWlLk6GJQsqaUBKTNV-11">
          <mxGeometry relative="1" as="geometry" />
        </mxCell>
        <mxCell id="EGZoGHrOsIgbQCZ_SuKL-7" value="&lt;h5&gt;&lt;font color=&quot;#ff3333&quot; style=&quot;font-size: 15px ; line-height: 130%&quot; face=&quot;Comic Sans MS&quot;&gt;onSessionEnd&lt;/font&gt;&lt;/h5&gt;" style="rounded=1;whiteSpace=wrap;html=1;fillColor=#FFFFFF;strokeColor=#FF3333;strokeWidth=2;" vertex="1" parent="WIyWlLk6GJQsqaUBKTNV-1">
          <mxGeometry x="158.75" y="1080" width="160" height="60" as="geometry" />
        </mxCell>
        <mxCell id="EGZoGHrOsIgbQCZ_SuKL-21" style="edgeStyle=orthogonalEdgeStyle;rounded=0;orthogonalLoop=1;jettySize=auto;html=1;exitX=0.5;exitY=1;exitDx=0;exitDy=0;entryX=0.5;entryY=0;entryDx=0;entryDy=0;" edge="1" parent="WIyWlLk6GJQsqaUBKTNV-1" source="EGZoGHrOsIgbQCZ_SuKL-11" target="EGZoGHrOsIgbQCZ_SuKL-4">
          <mxGeometry relative="1" as="geometry" />
        </mxCell>
        <mxCell id="EGZoGHrOsIgbQCZ_SuKL-11" value="&lt;h5&gt;&lt;font color=&quot;#ffffff&quot; style=&quot;font-size: 15px&quot; face=&quot;Comic Sans MS&quot;&gt;replaceMessage&lt;/font&gt;&lt;/h5&gt;" style="rounded=1;whiteSpace=wrap;html=1;fillColor=#FF9933;strokeWidth=2;" vertex="1" parent="WIyWlLk6GJQsqaUBKTNV-1">
          <mxGeometry x="160" y="630" width="160" height="60" as="geometry" />
        </mxCell>
      </root>
    </mxGraphModel>
  </diagram>
</mxfile>
